Coordinates
version=1
nRows=17
nColumns=36
inDegrees=yes

Units are S.I. units (second, meters, Newtons, ...)
If the header above contains a line with 'inDegrees', this indicates whether rotational values are in degrees (yes) or radians (no).

endheader
time	pelvis_tilt	pelvis_list	pelvis_rotation	pelvis_tx	pelvis_ty	pelvis_tz	hip_flexion_r	hip_adduction_r	hip_rotation_r	knee_angle_r	knee_angle_r_beta	ankle_angle_r	subtalar_angle_r	mtp_angle_r	hip_flexion_l	hip_adduction_l	hip_rotation_l	knee_angle_l	knee_angle_l_beta	ankle_angle_l	subtalar_angle_l	mtp_angle_l	lumbar_extension	lumbar_bending	lumbar_rotation	arm_flex_r	arm_add_r	arm_rot_r	elbow_flex_r	pro_sup_r	arm_flex_l	arm_add_l	arm_rot_l	elbow_flex_l	pro_sup_l
      2.62083330	    -11.18446946	     -1.44297125	     -0.15464551	      0.15475553	      0.76826029	     -0.05079988	     61.25283858	     -6.25172294	      3.84703278	     82.21813422	      1.43497715	     27.63412832	    -14.30143169	     -7.49999987	     61.75781157	     -7.42511002	      7.60756054	     83.76469278	      1.46196969	     22.56472120	    -14.33824413	     -7.49999987	    -49.88268139	      0.20513540	      3.21141570	     47.21442269	    -25.46333784	      6.73772654	     91.90519796	     92.21818159	     42.10941940	    -13.20803962	     -0.21670666	     95.02987356	     78.24962165
      2.62500000	    -11.37334920	     -1.46961486	      0.07041125	      0.15476201	      0.77135319	     -0.04647111	     60.60672173	     -6.00005390	      3.44534182	     81.26383450	      1.41832147	     27.26728906	    -14.78952135	     -7.49999987	     61.27335990	     -7.79048959	      7.61023385	     82.66252885	      1.44273330	     21.99094964	    -14.08031793	     -7.49999987	    -48.77783533	      0.00839977	      3.02635726	     47.03921874	    -26.24830518	      6.67311340	     94.89331376	     92.03970037	     42.64438984	    -14.88649097	      0.76577306	     98.37329398	     77.97441569
      2.62916670	    -11.40322172	     -1.53631786	      0.27733309	      0.15828765	      0.77616750	     -0.05071434	     59.85811725	     -5.92394242	      3.22916817	     80.28135949	      1.40117405	     26.69660433	    -15.19378298	     -7.49999987	     60.65367149	     -7.89182176	      7.67198751	     81.62473558	      1.42462039	     21.55789010	    -14.29530002	     -7.49999987	    -47.61965893	      0.07341692	      2.88541614	     47.20945459	    -27.45026582	      7.35318359	     97.53269173	     92.30414036	     43.05600737	    -16.58612399	      1.97749079	    101.11694043	     78.11069375
      2.63333330	    -11.55455268	     -1.49768258	      0.34388789	      0.16147057	      0.78299349	     -0.05453728	     58.99266912	     -6.06763133	      3.11537410	     78.94318493	      1.37781850	     26.15178122	    -15.28380421	     -7.49999987	     59.88105745	     -7.77083947	      7.58107262	     80.40206375	      1.40328074	     21.24736761	    -14.50091023	     -7.49999987	    -46.34494802	      0.14749627	      2.88677076	     47.44277297	    -28.87238763	      7.88897046	     99.93713516	     92.57141087	     43.18201078	    -17.39354103	      3.05940932	    104.30933509	     78.30979042
      2.63750000	    -11.79699247	     -1.50606823	      0.33654270	      0.16543495	      0.78674368	     -0.05426834	     58.31778422	     -6.22681377	      2.96870897	     77.74311651	      1.35687335	     25.95241348	    -15.17128108	     -7.49999987	     59.18770415	     -7.80849162	      7.43205977	     79.34805989	      1.38488490	     21.28607162	    -14.40198403	     -7.49999987	    -44.96336745	      0.35164994	      2.94850430	     47.69256642	    -30.54529304	      8.57454272	    102.91717243	     92.18834852	     43.05113960	    -18.32411217	      3.90472783	    107.43542758	     78.21698850
      2.64166670	    -12.04564055	     -1.45974744	      0.44875776	      0.16547665	      0.79398784	     -0.05005114	     57.64625110	     -6.32427128	      2.66993997	     76.43658511	      1.33407008	     25.21526620	    -15.28717581	     -7.49999987	     58.58665799	     -7.78169027	      7.34320440	     78.03258592	      1.36192555	     20.55066983	    -14.52975114	     -7.49999987	    -43.63257636	      0.37676085	      2.95808810	     48.24794148	    -31.70291060	      9.37418983	    105.28496466	     92.43995342	     43.57649624	    -19.45316609	      5.00990638	    109.65257849	     78.49091754
      2.64583330	    -12.65287108	     -1.61721676	      0.59373370	      0.16459552	      0.79481810	     -0.04622824	     57.74778050	     -6.27271315	      2.10314914	     75.58673031	      1.31923731	     24.83811422	    -15.76880377	     -7.49999987	     58.82524249	     -7.98348717	      7.55222423	     77.20121717	      1.34741543	     20.24665338	    -14.41035629	     -7.49999987	    -42.01927050	      0.48850640	      3.03623490	     49.00199252	    -33.12905344	     10.03959513	    108.13315086	     92.62545223	     44.32785400	    -21.22103644	      6.04515762	    112.01666254	     78.89072983
      2.65000000	    -13.22336750	     -1.78761519	      0.79890409	      0.17218502	      0.79946778	     -0.04859097	     57.58507557	     -6.31863800	      1.63586556	     74.66029878	      1.30306803	     24.24797072	    -16.03718385	     -7.49999987	     58.83572655	     -8.05252510	      7.73233481	     76.32668344	      1.33215193	     19.72305530	    -14.17377762	     -7.49999987	    -40.15038935	      0.68135077	      2.97528645	     49.26995420	    -34.22208091	     10.56497636	    110.26684749	     92.99225167	     44.83844634	    -22.96600223	      7.19151925	    113.61650652	     79.31082707
      2.65416670	    -13.71681289	     -2.03601479	      1.05503837	      0.17977224	      0.80053069	     -0.05142538	     57.00965178	     -6.50139606	      1.05651322	     73.64521119	      1.28535141	     24.13312539	    -15.59382152	     -7.49999987	     58.71433751	     -8.17172649	      7.79395932	     75.64184164	      1.32019919	     19.64074012	    -13.92996947	     -7.49999987	    -37.87574628	      1.12032449	      2.75908053	     49.05510507	    -35.47922072	     11.01810810	    111.93361027	     93.21587751	     44.78266145	    -24.29955653	      8.50478808	    115.33405287	     79.65019360
      2.65833330	    -14.29047680	     -2.19847665	      1.13171813	      0.18471625	      0.80532779	     -0.05386334	     56.61505322	     -6.70469449	      0.61716120	     72.67254603	      1.26837520	     23.85359484	    -15.08614398	     -7.49999987	     58.46087676	     -8.16709883	      7.77718785	     74.87081444	      1.30674223	     19.63026945	    -13.75064470	     -7.49999987	    -35.56900183	      1.43078731	      2.81871873	     48.72194710	    -36.98798407	     11.44460271	    113.94333159	     93.58009597	     44.74139553	    -25.50545216	      9.51751441	    116.84039178	     80.22496434
      2.66250000	    -14.71668705	     -2.28467622	      1.16462408	      0.18795674	      0.80868083	     -0.05409834	     56.09524589	     -6.95799828	      0.14801250	     71.72812068	      1.25189187	     23.63087010	    -14.59808604	     -7.49999987	     58.09086530	     -8.15437415	      7.62868876	     74.11048803	      1.29347203	     19.39364017	    -13.68502973	     -7.49999987	    -33.26501406	      1.71237808	      2.98065339	     48.96534491	    -38.70701245	     12.05146299	    115.46645449	     93.04146123	     44.74757843	    -26.25317904	     10.32385328	    118.20811083	     79.98577717
      2.66666670	    -15.21069470	     -2.32080216	      1.17933379	      0.19038786	      0.81320560	     -0.05512884	     55.72135900	     -7.23852588	     -0.24342250	     70.59156651	      1.23205526	     23.40270833	    -14.03258517	     -7.49999987	     57.81625705	     -8.04454711	      7.58282694	     73.14845649	      1.27668141	     19.03093575	    -13.58466257	     -7.49999987	    -30.89736521	      1.87068766	      3.14785544	     49.38260886	    -40.44702989	     12.99369618	    116.23393129	     91.50783787	     45.02623105	    -27.36316998	     11.01946456	    118.85540141	     79.18258866
      2.67083330	    -15.56961471	     -2.28282138	      1.07502449	      0.19488555	      0.81932775	     -0.05421385	     55.16937198	     -7.40712572	     -0.52076394	     69.42303045	      1.21166046	     22.96202229	    -13.73183352	     -7.49999987	     57.20006781	     -8.04486838	      7.38264053	     71.92252368	      1.25528484	     18.74438359	    -13.40462477	     -7.49999987	    -28.50197020	      1.81850253	      3.36624458	     49.52893676	    -41.81626874	     14.04440558	    116.80872366	     91.73785872	     45.03172913	    -28.15347096	     11.11834763	    119.26202927	     79.56669572
      2.67500000	    -16.00615166	     -2.31298001	      0.91428572	      0.19860845	      0.82302758	     -0.05698092	     54.74258957	     -7.50261561	     -0.86845653	     68.22980345	      1.19083472	     22.66169802	    -13.34407213	     -7.49999987	     56.78522715	     -8.08992823	      7.12855316	     70.91701659	      1.23773544	     18.50090836	    -13.35105817	     -7.49999987	    -26.00889890	      2.15679024	      2.38794549	     51.88840031	    -42.20887220	     17.99601085	    115.87625089	     94.09990105	     43.85978888	    -30.10508553	     10.01476344	    120.68991409	     83.92472133
      2.67916670	    -16.32717600	     -2.23760150	      0.84131420	      0.20606182	      0.82744204	     -0.05677739	     54.03576514	     -7.74358029	     -1.22848272	     67.08178232	      1.17079797	     22.14041828	    -12.82682899	     -7.49999987	     56.00456789	     -8.13285448	      6.72353572	     69.61063734	      1.21493482	     18.22229124	    -13.17096986	     -7.49999987	    -23.52805018	      1.99641584	      2.34650285	     51.66696420	    -43.17913194	     18.95411834	    116.14086307	     94.11644547	     43.69057545	    -30.77615465	     10.64570620	    121.22844253	     83.99586867
      2.68333330	    -16.94577648	     -2.13519752	      0.74777060	      0.20686651	      0.83579998	     -0.05627831	     53.69941424	     -7.85934807	     -1.45172343	     65.61801426	      1.14525040	     21.77885962	    -12.36192469	     -7.49999987	     55.62121242	     -8.11681077	      6.24230536	     68.20317188	      1.19036991	     17.61876754	    -13.24847316	     -7.49999987	    -21.07637135	      1.84149227	      2.45744578	     52.71540718	    -44.62676886	     21.05161179	    116.45707339	     92.33138549	     44.30387296	    -31.91408900	     12.38515534	    121.96882224	     82.85427697
      2.68750000	    -17.40734381	     -2.07867115	      0.74400647	      0.21033974	      0.84322780	     -0.05745697	     52.99607464	     -8.06468377	     -1.87797011	     63.84040133	      1.11422520	     20.90684563	    -11.84376544	     -7.49999987	     54.85154910	     -8.08921234	      5.83438543	     66.36665981	      1.15831673	     16.95988222	    -12.96061525	     -7.49999987	    -18.96059330	      1.76885619	      2.30964186	     52.89637414	    -45.63827703	     22.23068080	    116.77073815	     92.29169664	     44.59053657	    -32.57167445	     13.09084244	    122.48153891	     82.89410550
